<?xml version="1.0" standalone="no"?>
<!DOCTYPE svg PUBLIC "-//W3C//DTD SVG 20010904//EN"
 "http://www.w3.org/TR/2001/REC-SVG-20010904/DTD/svg10.dtd">
<svg version="1.0" xmlns="http://www.w3.org/2000/svg"
 width="1024.000000pt" height="1024.000000pt" viewBox="0 0 1024.000000 1024.000000"
 preserveAspectRatio="xMidYMid meet">

<g transform="translate(0.000000,1024.000000) scale(0.100000,-0.100000)"
fill="#000000" stroke="none">
<path d="M0 5120 l0 -5120 5120 0 5120 0 0 5120 0 5120 -5120 0 -5120 0 0
-5120z m5361 2895 c389 -43 635 -116 986 -291 150 -75 219 -117 321 -193 259
-195 474 -417 630 -651 246 -369 389 -727 459 -1145 26 -159 26 -616 0 -760
-53 -288 -127 -514 -249 -760 -257 -517 -691 -955 -1219 -1229 -245 -128 -508
-215 -799 -267 -148 -27 -505 -37 -676 -20 -404 41 -811 180 -1174 401 -149
91 -385 276 -515 405 -118 116 -277 320 -380 485 -168 271 -303 627 -357 936
-19 114 -22 165 -22 434 -1 335 3 370 70 640 44 181 90 304 184 495 141 287
306 520 518 728 267 264 497 422 829 569 257 114 455 173 703 207 80 11 156
22 170 24 66 11 394 5 521 -8z"/>
<path d="M4110 7540 c-8 -5 -10 -10 -5 -10 6 0 17 5 25 10 8 5 11 10 5 10 -5
0 -17 -5 -25 -10z"/>
<path d="M4020 7500 c-8 -5 -10 -10 -5 -10 6 0 17 5 25 10 8 5 11 10 5 10 -5
0 -17 -5 -25 -10z"/>
<path d="M3940 7460 c-9 -6 -10 -10 -3 -10 6 0 15 5 18 10 8 12 4 12 -15 0z"/>
<path d="M3900 7440 c-9 -6 -10 -10 -3 -10 6 0 15 5 18 10 8 12 4 12 -15 0z"/>
<path d="M3854 7414 c-18 -14 -18 -15 4 -4 12 6 22 13 22 15 0 8 -5 6 -26 -11z"/>
<path d="M3798 7384 c-38 -20 -36 -28 2 -9 17 9 30 18 30 20 0 7 -1 6 -32 -11z"/>
<path d="M3613 7262 c-115 -80 -360 -324 -464 -463 -234 -309 -395 -673 -461
-1035 -21 -116 -23 -158 -23 -414 1 -335 16 -450 92 -685 74 -227 142 -371
255 -540 179 -266 253 -352 497 -578 72 -68 280 -212 405 -282 364 -203 890
-322 1298 -294 334 23 796 159 1033 302 39 24 53 37 40 37 -18 1 -19 1 -2 11
9 5 22 7 27 4 6 -3 10 2 10 12 0 15 2 16 10 3 8 -13 10 -12 10 3 0 9 8 17 18
17 24 0 154 89 147 101 -4 5 -3 8 2 7 16 -5 54 23 47 35 -4 7 -4 9 1 5 7 -7
73 41 67 49 -1 2 10 17 25 33 15 16 36 41 46 55 10 14 22 23 28 20 5 -4 9 1 9
9 0 9 11 23 25 32 14 9 25 25 25 35 0 10 10 23 22 30 29 15 69 60 63 70 -9 13
17 58 37 64 15 5 18 17 18 68 0 56 -2 63 -25 74 -14 6 -25 7 -25 3 0 -16 -33
-42 -39 -31 -4 5 -34 -27 -67 -72 -60 -80 -170 -205 -208 -236 -11 -9 -35 -30
-55 -47 -67 -58 -251 -164 -284 -164 -8 0 -27 -11 -43 -25 -24 -21 -26 -25
-10 -25 15 0 17 -5 12 -26 -4 -16 -1 -35 7 -48 8 -11 16 -33 19 -47 l5 -26
-61 30 c-93 46 -223 157 -210 180 4 6 4 9 0 5 -4 -3 -25 11 -45 31 -51 51 -84
59 -99 25 -7 -14 -12 -31 -12 -39 0 -7 -4 -15 -8 -17 -4 -1 -18 -19 -30 -39
-24 -39 -31 -139 -12 -162 6 -7 19 -22 29 -35 10 -12 23 -21 27 -20 10 3 94
-30 94 -37 0 -2 -7 -1 -17 2 -10 4 -14 2 -10 -4 13 -20 -146 46 -225 94 -126
76 -381 288 -519 432 -70 72 -123 131 -119 131 7 0 7 8 1 39 -1 2 -8 -2 -16
-9 -13 -11 -20 -9 -38 9 -13 11 -29 21 -35 21 -7 0 -59 -24 -115 -54 -152 -80
-188 -90 -347 -90 -116 -1 -145 2 -205 22 -111 37 -184 82 -261 157 -78 76
-122 152 -148 252 -25 94 -18 106 12 23 43 -120 93 -199 178 -279 83 -79 155
-119 264 -147 89 -23 280 -15 365 14 74 26 430 215 543 288 46 30 111 68 145
86 61 30 304 173 567 333 454 276 509 321 584 478 97 201 101 362 16 545 -17
35 -44 82 -61 103 -17 21 -27 39 -23 39 5 0 -16 25 -46 55 -30 30 -60 55 -68
55 -7 0 -10 5 -7 10 3 6 -3 10 -14 10 -35 0 -234 125 -299 188 -19 17 -95 61
-169 97 -87 43 -132 69 -127 77 4 7 3 8 -4 4 -7 -4 -12 -3 -12 2 0 5 -19 17
-42 28 -24 10 -46 22 -49 27 -3 5 -10 9 -15 9 -18 1 -34 10 -29 18 3 4 -10 10
-28 14 -25 5 -29 9 -17 16 8 5 11 10 5 11 -33 3 -52 13 -122 67 -49 38 -98 66
-133 77 -76 23 -111 37 -107 42 2 2 16 -1 31 -6 41 -16 30 -4 -21 24 -27 14
-86 50 -133 80 -47 31 -99 62 -116 69 -17 7 -50 26 -75 42 -50 33 -71 41 -189
79 -78 26 -93 27 -205 22 -142 -6 -223 -28 -314 -87 -115 -75 -201 -181 -245
-305 -63 -174 -61 -154 -59 -815 1 -333 -1 -594 -4 -581 -2 13 -98 118 -218
240 -213 216 -271 282 -335 376 -18 28 -48 68 -65 90 -40 50 -52 71 -37 61 7
-4 12 -2 12 3 0 6 14 11 30 11 21 0 30 5 30 17 0 9 3 14 6 10 9 -9 54 39 54
58 0 8 -9 15 -20 15 -13 0 -20 7 -20 20 0 13 -7 20 -20 20 -15 0 -20 7 -20 25
0 18 -5 25 -20 25 -11 0 -20 5 -20 10 0 6 -19 9 -42 9 -24 -1 -33 -4 -20 -6
36 -7 25 -23 -17 -23 -22 0 -46 -3 -55 -6 -12 -5 -16 1 -16 24 0 84 161 395
321 619 38 53 69 101 69 106 0 6 8 16 18 24 9 8 11 12 5 8 -22 -11 -14 6 11
26 14 11 24 29 24 46 0 15 5 29 11 31 6 2 11 9 11 16 0 18 -24 66 -32 66 -5 0
-8 13 -8 29 0 16 -6 31 -15 35 -9 3 -15 0 -15 -8 0 -8 -9 -16 -20 -19 -25 -6
-27 18 -3 32 10 5 15 13 11 16 -4 4 13 25 38 46 25 21 42 39 38 39 -15 0 80
81 149 127 57 39 88 64 75 63 -2 -1 -40 -27 -85 -58z m986 -691 c34 -10 82
-32 108 -49 27 -16 89 -51 138 -77 50 -27 124 -69 165 -96 41 -26 143 -86 225
-134 472 -276 933 -562 981 -611 112 -111 151 -269 101 -415 -47 -138 -96
-195 -247 -288 -272 -169 -406 -249 -655 -394 -66 -38 -174 -103 -240 -142
-313 -189 -566 -317 -660 -335 -186 -35 -391 72 -456 238 -20 51 -23 82 -29
277 -4 121 -5 553 -3 960 l4 740 25 81 c24 83 51 118 147 196 79 65 270 88
396 49z m-1475 -1632 c42 -33 79 -96 131 -224 57 -143 118 -254 234 -430 67
-101 119 -164 232 -280 153 -157 169 -178 169 -219 0 -37 -30 -105 -51 -116
-49 -27 -137 10 -270 115 -191 150 -336 353 -493 690 -112 240 -145 395 -93
443 47 44 101 52 141 21z m683 -601 c-3 -8 -6 -5 -6 6 -1 11 2 17 5 13 3 -3 4
-12 1 -19z"/>
<path d="M4605 5906 c-52 -23 -82 -68 -89 -133 -3 -32 -5 -263 -3 -514 3 -435
4 -457 23 -489 25 -43 78 -80 115 -80 35 0 116 43 384 202 283 168 384 226
489 283 50 26 100 59 113 73 24 26 30 70 13 102 -14 26 -95 82 -197 136 -104
56 -216 120 -448 258 -301 178 -333 191 -400 162z"/>
<path d="M3425 7060 c-3 -5 -2 -10 4 -10 5 0 13 5 16 10 3 6 2 10 -4 10 -5 0
-13 -4 -16 -10z"/>
<path d="M3758 5930 c-4 -14 -10 -77 -13 -140 -5 -101 -31 -342 -41 -377 -2
-7 -13 -13 -24 -13 -13 0 -20 -7 -20 -20 0 -11 5 -20 10 -20 6 0 10 -6 10 -14
0 -8 14 -28 30 -44 17 -17 30 -38 30 -46 0 -19 14 -21 27 -3 22 30 32 89 31
186 -1 85 -3 101 -13 88 -7 -9 -14 -17 -17 -17 -10 0 -15 144 -6 176 5 18 7
86 6 151 -2 67 -6 107 -10 93z"/>
<path d="M3782 5880 c0 -14 2 -19 5 -12 2 6 2 18 0 25 -3 6 -5 1 -5 -13z"/>
<path d="M5995 4570 c3 -5 8 -10 11 -10 2 0 4 5 4 10 0 6 -5 10 -11 10 -5 0
-7 -4 -4 -10z"/>
<path d="M5885 4510 c-3 -6 1 -7 9 -4 18 7 21 14 7 14 -6 0 -13 -4 -16 -10z"/>
<path d="M5720 4410 c-9 -6 -10 -10 -3 -10 6 0 15 5 18 10 8 12 4 12 -15 0z"/>
<path d="M5679 4383 c-13 -16 -12 -17 4 -4 9 7 17 15 17 17 0 8 -8 3 -21 -13z"/>
<path d="M5614 4344 c-18 -14 -18 -15 4 -4 12 6 22 13 22 15 0 8 -5 6 -26 -11z"/>
<path d="M5511 4281 c-7 -5 -11 -13 -7 -19 4 -7 -3 -9 -18 -6 -14 2 -43 -7
-70 -22 -50 -28 -60 -39 -22 -24 22 8 23 7 12 -16 -6 -13 -15 -24 -19 -24 -5
0 -2 -7 7 -15 8 -8 31 -15 50 -15 20 0 36 -4 36 -10 0 -5 9 -10 20 -10 11 0
20 5 20 10 0 6 9 10 20 10 16 0 20 7 20 30 0 23 -4 30 -20 30 -27 0 -25 14 3
28 l22 11 -24 0 c-19 1 -23 5 -19 26 3 14 5 25 4 25 0 0 -7 -4 -15 -9z"/>
<path d="M5258 4144 c-33 -17 -35 -23 -9 -21 11 0 17 5 15 9 -11 17 21 7 43
-14 27 -26 31 -10 4 20 -21 26 -18 25 -53 6z"/>
<path d="M5115 4053 c-49 -30 -114 -67 -143 -80 l-53 -25 22 -19 c25 -21 39
-18 20 5 -10 12 -5 18 30 35 37 18 40 19 25 2 -20 -22 -20 -31 -1 -31 8 0 15
-4 15 -8 0 -4 9 -8 20 -9 12 -1 29 -11 38 -23 l18 -22 57 54 c42 40 57 62 57
81 0 15 -4 27 -10 27 -5 0 -10 7 -10 15 0 8 -5 15 -11 15 -5 0 -7 5 -4 10 4 6
10 8 14 6 4 -3 8 1 8 9 0 8 -1 15 -1 15 -1 0 -41 -26 -91 -57z"/>
<path d="M4508 3013 c6 -2 18 -2 25 0 6 3 1 5 -13 5 -14 0 -19 -2 -12 -5z"/>
</g>
</svg>
